HIERARCHY
ROOT root
{
	OFFSET 0.000000 0.000000 0.000000
	CHANNELS 6 Xposition Yposition Zposition Zrotation Yrotation Xrotation
	JOINT lhip
	{
		OFFSET 0.058581 -0.082280 -0.017664
		CHANNELS 3 Zrotation Yrotation Xrotation
		JOINT lknee
		{
			OFFSET 0.043451 -0.386469 0.008037
			CHANNELS 3 Zrotation Yrotation Xrotation
			JOINT lankle
			{
				OFFSET -0.014790 -0.426874 -0.037428
				CHANNELS 3 Zrotation Yrotation Xrotation
				JOINT ltoe
				{
					OFFSET 0.041054 -0.060286 0.122042
					CHANNELS 3 Zrotation Yrotation Xrotation
					End Site
					{
						OFFSET 0.000000 0.000000 0.000000
					}
				}
			}
		}
	}
	JOINT rhip
	{
		OFFSET -0.060310 -0.090513 -0.013543
		CHANNELS 3 Zrotation Yrotation Xrotation
		JOINT rknee
		{
			OFFSET -0.043257 -0.383688 -0.004843
			CHANNELS 3 Zrotation Yrotation Xrotation
			JOINT rankle
			{
				OFFSET 0.019056 -0.420046 -0.034562
				CHANNELS 3 Zrotation Yrotation Xrotation
				JOINT rtoe
				{
					OFFSET -0.034840 -0.062106 0.130323
					CHANNELS 3 Zrotation Yrotation Xrotation
					End Site
					{
						OFFSET 0.000000 0.000000 0.000000
					}
				}
			}
		}
	}
	JOINT lowerback
	{
		OFFSET 0.004439 0.124404 -0.038385
		CHANNELS 3 Zrotation Yrotation Xrotation
		JOINT upperback
		{
			OFFSET 0.004488 0.137956 0.026820
			CHANNELS 3 Zrotation Yrotation Xrotation
			JOINT chest
			{
				OFFSET -0.002265 0.056032 0.002855
				CHANNELS 3 Zrotation Yrotation Xrotation
				JOINT lowerneck
				{
					OFFSET -0.013390 0.211636 -0.033468
					CHANNELS 3 Zrotation Yrotation Xrotation
					JOINT upperneck
					{
						OFFSET 0.010113 0.088937 0.050410
						CHANNELS 3 Zrotation Yrotation Xrotation
						End Site
						{
							OFFSET 0.000000 0.000000 0.000000
						}
					}
				}
				JOINT lclavicle
				{
					OFFSET 0.071702 0.114000 -0.018898
					CHANNELS 3 Zrotation Yrotation Xrotation
					JOINT lshoulder
					{
						OFFSET 0.122921 0.045205 -0.019046
						CHANNELS 3 Zrotation Yrotation Xrotation
						JOINT lelbow
						{
							OFFSET 0.255332 -0.015649 -0.022946
							CHANNELS 3 Zrotation Yrotation Xrotation
							JOINT lwrist
							{
								OFFSET 0.265709 0.012698 -0.007375
								CHANNELS 3 Zrotation Yrotation Xrotation
								End Site
								{
									OFFSET 0.000000 0.000000 0.000000
								}
							}
						}
					}
				}
				JOINT rclavicle
				{
					OFFSET -0.082954 0.112472 -0.023707
					CHANNELS 3 Zrotation Yrotation Xrotation
					JOINT rshoulder
					{
						OFFSET -0.113228 0.046853 -0.008472
						CHANNELS 3 Zrotation Yrotation Xrotation
						JOINT relbow
						{
							OFFSET -0.260127 -0.014369 -0.031269
							CHANNELS 3 Zrotation Yrotation Xrotation
							JOINT rwrist
							{
								OFFSET -0.269108 0.006794 -0.006027
								CHANNELS 3 Zrotation Yrotation Xrotation
								End Site
								{
									OFFSET 0.000000 0.000000 0.000000
								}
							}
						}
					}
				}
			}
		}
	}
}
MOTION
Frames: 7
Frame Time: 0.033333
0.034314 0.265653 1.006540 90.873780 0.315456 106.948132 -0.203561 2.247639 -14.540310 4.010615 6.180736 -6.631804 -3.618426 5.654364 2.039114 0.000000 -0.000000 0.000000 -1.194795 -3.409285 -22.547060 -4.586984 -11.100388 2.053512 6.574718 -8.280922 5.737374 0.000000 -0.000000 0.000000 3.856955 -1.954754 25.521079 1.525878 -2.868649 -6.204685 2.570914 -0.535636 -6.292693 -3.890779 5.981050 -28.587320 -1.417045 -4.559860 -4.530542 -28.987308 -20.622178 0.398910 -44.194890 -21.372078 16.042079 -1.804813 -28.478702 22.328567 -22.493373 -7.648324 11.494468 32.883828 23.667071 2.731415 43.599532 24.520687 18.273995 -7.043209 20.480248 9.665291 18.130728 -0.454689 12.414894 
0.032488 0.265646 1.006386 90.853909 0.293117 107.073729 -0.221586 2.268686 -14.927431 4.021996 6.128189 -6.384284 -3.651735 5.631282 2.078226 0.000000 -0.000000 0.000000 -1.203048 -3.431265 -22.907254 -4.605934 -11.028535 2.204107 6.625494 -8.246991 5.791540 0.000000 -0.000000 0.000000 3.931495 -2.069629 25.610356 1.478145 -2.864841 -6.335690 2.506650 -0.596626 -6.248785 -3.781513 5.970431 -28.534141 -1.393030 -4.514514 -4.372513 -28.978831 -20.587856 0.325448 -44.030319 -21.489792 15.875011 -1.688166 -27.998700 21.985219 -22.380188 -7.635617 11.552887 32.754257 23.711218 2.631982 43.556607 24.780619 18.320362 -6.851260 20.333229 9.735097 18.194016 -0.438535 12.272340 
0.031200 0.265657 1.006255 90.792218 0.251291 107.037924 -0.241397 2.357495 -15.050804 3.955966 6.093865 -6.234406 -3.704670 5.582971 2.076643 0.000000 -0.000000 0.000000 -1.262239 -3.462216 -23.096343 -4.607199 -10.972404 2.425278 6.573038 -8.215153 5.745373 0.000000 -0.000000 0.000000 3.901421 -2.143873 25.690854 1.414678 -2.892509 -6.300701 2.463023 -0.539288 -6.214670 -3.676633 5.913379 -28.375756 -1.282611 -4.462003 -4.412435 -29.022003 -20.589880 0.293688 -43.838039 -21.502174 15.669375 -1.534249 -27.701082 21.687633 -22.214485 -7.664212 11.787047 32.642719 23.831280 2.683186 43.493312 24.864818 18.223936 -6.875102 20.154775 9.779166 18.142472 -0.439863 12.540613 
0.030145 0.265594 1.006299 90.771598 0.241759 106.991562 -0.185798 2.249098 -15.118122 3.903134 6.126702 -6.115167 -3.652004 5.656585 2.037826 0.000000 -0.000000 0.000000 -1.312157 -3.412703 -23.239862 -4.599982 -10.949566 2.625219 6.497618 -8.257361 5.786550 0.000000 -0.000000 0.000000 3.888917 -2.173283 25.752671 1.401341 -2.869242 -6.344978 2.457923 -0.578479 -6.106996 -3.703588 5.930511 -28.233996 -1.255670 -4.397582 -4.380980 -28.986647 -20.535231 0.302479 -43.668747 -21.514952 15.503751 -1.277849 -27.735228 21.144542 -22.528425 -7.845192 11.438121 32.527481 23.803269 2.560484 43.502506 24.849405 18.316849 -6.889990 20.015597 9.840971 18.442526 -0.549765 12.584013 
0.029349 0.265765 1.006310 90.787996 0.229277 106.900764 -0.228401 2.247070 -15.118875 3.940898 6.056179 -6.052942 -3.662406 5.713754 2.104669 0.000000 -0.000000 0.000000 -1.347008 -3.462078 -23.232552 -4.570886 -10.919763 2.685260 6.516528 -8.264606 5.805325 0.000000 -0.000000 0.000000 3.925984 -2.221573 25.822935 1.376195 -2.911660 -6.283844 2.442630 -0.596365 -6.108921 -3.762449 5.864474 -28.080830 -1.269757 -4.351389 -4.438972 -28.895509 -20.526422 0.318719 -43.542718 -21.381338 15.391286 -1.132409 -27.906469 20.763716 -22.377867 -7.782543 11.056260 32.441725 23.811587 2.549257 43.419321 24.786780 18.237590 -6.849016 19.864183 9.847967 18.386938 -0.711331 12.735818 
0.028668 0.266065 1.006273 90.807382 0.148907 106.891190 -0.321396 2.148795 -15.198795 3.980776 6.042214 -6.002211 -3.622754 5.767748 2.144961 0.000000 -0.000000 0.000000 -1.409677 -3.496303 -23.276767 -4.610516 -10.828556 2.698236 6.470295 -8.318455 5.843469 0.000000 -0.000000 0.000000 3.921008 -2.197879 25.710872 1.372913 -2.922500 -6.188845 2.411236 -0.647672 -6.067581 -3.746857 5.701961 -28.033690 -1.348237 -4.454744 -4.533043 -28.904450 -20.483792 0.310517 -43.360637 -21.398308 15.340227 -1.157421 -27.910710 20.756147 -22.348458 -7.792031 10.986895 32.435139 23.734096 2.519769 43.295501 24.742937 18.193195 -6.795461 19.629197 9.791204 18.145335 -0.641131 12.904479 
0.028439 0.266332 1.006371 90.917523 0.120892 106.803434 -0.358354 2.108995 -15.165847 4.017845 5.940772 -5.957145 -3.615702 5.788174 2.137046 0.000000 -0.000000 0.000000 -1.417624 -3.545094 -23.174045 -4.653983 -10.828679 2.695753 6.535097 -8.367678 5.805900 0.000000 -0.000000 0.000000 3.946430 -2.259211 25.708881 1.381727 -2.962945 -6.214513 2.394409 -0.645135 -6.002134 -3.754182 5.742338 -28.049650 -1.373070 -4.424276 -4.471777 -28.861805 -20.396746 0.209842 -43.352705 -21.423449 15.374766 -1.146418 -27.797902 20.834625 -22.326109 -7.798106 11.008890 32.437137 23.627317 2.484120 43.222302 24.703956 18.179709 -6.683817 19.208685 9.960598 18.275100 -0.674669 13.023613 
